<svg xmlns="http://www.w3.org/2000/svg" xmlns:xlink="http://www.w3.org/1999/xlink" width="500" zoomAndPan="magnify" viewBox="0 0 375 374.999991" height="500" preserveAspectRatio="xMidYMid meet" version="1.0"><defs><g/></defs><g fill="#2c2c2c" fill-opacity="1"><g transform="translate(109.204348, 197.624987)"><g><path d="M 15.980469 -20.320312 L 1.855469 -20.320312 L 1.855469 0 L 15.867188 0 L 15.867188 -2.167969 L 4.253906 -2.167969 L 4.253906 -9.503906 L 14.839844 -9.503906 L 14.839844 -11.671875 L 4.253906 -11.671875 L 4.253906 -18.148438 L 15.980469 -18.148438 Z M 15.980469 -20.320312 "/></g></g></g><g fill="#2c2c2c" fill-opacity="1"><g transform="translate(128.180905, 197.624987)"><g><path d="M 9.558594 0.429688 C 14.640625 0.429688 17.550781 -2.453125 17.550781 -7.535156 L 17.550781 -20.320312 L 15.152344 -20.320312 L 15.152344 -7.5625 C 15.152344 -3.566406 13.097656 -1.769531 9.558594 -1.769531 C 6.019531 -1.769531 3.964844 -3.566406 3.964844 -7.5625 L 3.964844 -20.320312 L 1.570312 -20.320312 L 1.570312 -7.535156 C 1.570312 -2.453125 4.480469 0.429688 9.558594 0.429688 Z M 9.558594 0.429688 "/></g></g></g><g fill="#2c2c2c" fill-opacity="1"><g transform="translate(149.582947, 197.624987)"><g><path d="M 0.570312 -20.320312 L 0.570312 -18.148438 L 7.476562 -18.148438 L 7.476562 0 L 9.960938 0 L 9.960938 -18.148438 L 16.867188 -18.148438 L 16.867188 -20.320312 Z M 0.570312 -20.320312 "/></g></g></g><g fill="#2c2c2c" fill-opacity="1"><g transform="translate(169.301413, 197.624987)"><g><path d="M 15.582031 -11.558594 L 4.253906 -11.558594 L 4.253906 -20.320312 L 1.855469 -20.320312 L 1.855469 0 L 4.253906 0 L 4.253906 -9.390625 L 15.582031 -9.390625 L 15.582031 0 L 17.980469 0 L 17.980469 -20.320312 L 15.582031 -20.320312 Z M 15.582031 -11.558594 "/></g></g></g><g fill="#2c2c2c" fill-opacity="1"><g transform="translate(191.416832, 197.624987)"><g><path d="M 12.671875 -15.582031 C 11.558594 -13.839844 10.472656 -12.070312 9.417969 -10.300781 C 8.363281 -12.070312 7.277344 -13.8125 6.164062 -15.554688 L 3.167969 -20.320312 L 0.429688 -20.320312 L 8.191406 -8.160156 L 8.191406 0 L 10.585938 0 L 10.585938 -8.160156 L 18.351562 -20.320312 L 15.636719 -20.320312 Z M 12.671875 -15.582031 "/></g></g></g><g fill="#2c2c2c" fill-opacity="1"><g transform="translate(212.476454, 197.624987)"><g><path d="M 14.410156 -9.101562 C 13.582031 -7.105469 12.640625 -4.566406 12.015625 -2.910156 C 11.414062 -4.480469 10.53125 -6.761719 9.703125 -8.761719 L 4.992188 -20.320312 L 1.855469 -20.320312 L 1.855469 0 L 4.195312 0 L 4.195312 -6.507812 C 4.195312 -9.21875 4.195312 -12.925781 4.109375 -16.867188 C 4.652344 -15.351562 5.195312 -13.984375 5.90625 -12.242188 L 10.957031 0 L 13.011719 0 L 18.035156 -12.242188 C 18.75 -13.984375 19.292969 -15.351562 19.832031 -16.867188 C 19.746094 -12.925781 19.746094 -9.21875 19.746094 -6.507812 L 19.746094 0 L 22.089844 0 L 22.089844 -20.320312 L 18.949219 -20.320312 Z M 14.410156 -9.101562 "/></g></g></g><g fill="#2c2c2c" fill-opacity="1"><g transform="translate(238.700932, 197.624987)"><g><path d="M 3.996094 -21.515625 L 6.535156 -25.65625 L 3.738281 -25.65625 L 2.140625 -21.515625 Z M 4.253906 0 L 4.253906 -20.320312 L 1.855469 -20.320312 L 1.855469 0 Z M 4.253906 0 "/></g></g></g><g fill="#2c2c2c" fill-opacity="1"><g transform="translate(247.090962, 197.624987)"><g><path d="M 7.960938 -20.320312 L 0.714844 -2.167969 L 0.714844 0 L 17.980469 0 L 17.980469 -2.167969 L 10.644531 -20.320312 Z M 9.273438 -17.722656 C 10.5 -14.582031 12.101562 -10.53125 12.984375 -8.332031 L 15.46875 -2.167969 L 3.226562 -2.167969 L 5.652344 -8.304688 C 6.535156 -10.5 8.105469 -14.582031 9.273438 -17.722656 Z M 9.273438 -17.722656 "/></g></g></g></svg>