<svg xmlns="http://www.w3.org/2000/svg" xmlns:xlink="http://www.w3.org/1999/xlink" width="500" zoomAndPan="magnify" viewBox="0 0 375 374.999991" height="500" preserveAspectRatio="xMidYMid meet" version="1.0"><defs><clipPath id="d5d2262049"><path d="M 0 11.25 L 375 11.25 L 375 287 L 0 287 Z M 0 11.25 " clip-rule="nonzero"/></clipPath><clipPath id="2f5e24e020"><path d="M 34 290 L 341 290 L 341 363.75 L 34 363.75 Z M 34 290 " clip-rule="nonzero"/></clipPath></defs><g clip-path="url(#d5d2262049)"><path fill="#2c2c2c" d="M 374.367188 254.136719 C 373.257812 252.234375 370.964844 251.367188 368.878906 252.066406 C 350.671875 258.136719 334.003906 257.34375 319.351562 249.71875 C 298.554688 238.890625 285.617188 216.378906 280.855469 200.394531 C 279.390625 195.464844 277.9375 190.035156 276.527344 184.785156 C 270.59375 162.648438 264.984375 141.738281 254.132812 136.578125 L 249.9375 134.601562 C 238.753906 129.351562 223.433594 122.160156 212.828125 114.453125 C 205.972656 109.460938 206.613281 101.976562 207.851562 94.734375 C 207.851562 94.714844 207.859375 94.703125 207.863281 94.6875 C 222.105469 84.332031 227.222656 64.9375 227.222656 51.046875 C 227.226562 29.152344 209.40625 11.34375 187.5 11.34375 C 165.59375 11.34375 147.804688 29.152344 147.804688 51.039062 C 147.804688 64.957031 152.921875 84.382812 167.171875 94.714844 C 168.433594 101.957031 169.078125 109.4375 162.207031 114.441406 C 151.628906 122.113281 136.390625 129.28125 125.261719 134.511719 L 120.894531 136.574219 C 110.046875 141.730469 104.441406 162.636719 98.507812 184.765625 C 97.097656 190.023438 95.640625 195.457031 94.171875 200.386719 C 89.414062 216.375 76.480469 238.878906 55.679688 249.707031 C 41.015625 257.34375 24.34375 258.132812 6.121094 252.0625 C 4.039062 251.367188 1.742188 252.230469 0.632812 254.136719 C -0.472656 256.042969 -0.09375 258.460938 1.542969 259.933594 C 2.964844 261.207031 36.824219 290.914062 82.769531 269.917969 C 110.550781 257.230469 127.617188 233.851562 136.363281 218.511719 C 137.1875 235.347656 135.578125 261.976562 120.03125 278.710938 C 118.285156 280.589844 118.390625 283.53125 120.269531 285.28125 C 121.164062 286.113281 122.300781 286.523438 123.433594 286.523438 C 124.679688 286.523438 125.925781 286.027344 126.839844 285.039062 C 154.09375 255.710938 144.265625 203.335938 143.835938 201.121094 C 143.4375 199.082031 141.738281 197.558594 139.671875 197.382812 C 137.578125 197.195312 135.667969 198.421875 134.929688 200.359375 C 134.765625 200.792969 118.101562 243.5625 78.910156 261.464844 C 60.132812 270.042969 43.679688 269.035156 31.328125 265.394531 C 41.417969 265.113281 50.996094 262.636719 59.972656 257.960938 C 83.351562 245.792969 97.808594 220.773438 103.085938 203.046875 C 104.589844 197.996094 106.0625 192.5 107.488281 187.179688 C 112.132812 169.855469 117.917969 148.292969 124.886719 144.976562 L 129.222656 142.933594 C 140.683594 137.542969 156.382812 130.160156 167.671875 121.96875 C 179.828125 113.121094 177.464844 99.585938 176.328125 93.085938 C 176.214844 92.4375 176.113281 91.855469 176.039062 91.347656 C 176.035156 91.296875 176.019531 91.25 176.011719 91.199219 C 175.996094 91.117188 175.980469 91.03125 175.960938 90.949219 C 175.941406 90.875 175.921875 90.804688 175.902344 90.734375 C 175.882812 90.660156 175.863281 90.585938 175.835938 90.515625 C 175.8125 90.4375 175.78125 90.371094 175.753906 90.296875 C 175.726562 90.226562 175.699219 90.160156 175.671875 90.09375 C 175.640625 90.027344 175.605469 89.960938 175.574219 89.894531 C 175.535156 89.824219 175.5 89.753906 175.460938 89.683594 C 175.425781 89.625 175.390625 89.570312 175.355469 89.515625 C 175.304688 89.441406 175.257812 89.367188 175.207031 89.296875 C 175.171875 89.25 175.136719 89.203125 175.101562 89.160156 C 175.046875 89.082031 174.984375 89.011719 174.921875 88.9375 C 174.882812 88.898438 174.847656 88.863281 174.8125 88.824219 C 174.746094 88.753906 174.675781 88.683594 174.601562 88.613281 C 174.5625 88.578125 174.519531 88.539062 174.476562 88.503906 C 174.410156 88.441406 174.335938 88.382812 174.261719 88.324219 C 174.207031 88.285156 174.152344 88.25 174.097656 88.210938 C 174.046875 88.175781 173.996094 88.136719 173.941406 88.101562 C 161.515625 80.160156 157.105469 63.179688 157.105469 51.050781 C 157.105469 34.289062 170.746094 20.648438 187.503906 20.648438 C 204.261719 20.648438 217.933594 34.289062 217.933594 51.050781 C 217.933594 63.117188 213.542969 80.015625 201.1875 88.007812 C 200.890625 88.1875 200.617188 88.402344 200.363281 88.648438 C 200.351562 88.660156 200.339844 88.671875 200.328125 88.683594 C 200.238281 88.773438 200.144531 88.867188 200.0625 88.96875 C 200.039062 88.996094 200.019531 89.023438 199.996094 89.050781 C 199.925781 89.136719 199.859375 89.226562 199.792969 89.316406 C 199.765625 89.351562 199.742188 89.394531 199.71875 89.433594 C 199.664062 89.515625 199.609375 89.605469 199.558594 89.691406 C 199.53125 89.738281 199.507812 89.785156 199.480469 89.832031 C 199.4375 89.917969 199.394531 90.003906 199.355469 90.089844 C 199.332031 90.144531 199.3125 90.203125 199.289062 90.261719 C 199.253906 90.34375 199.222656 90.425781 199.191406 90.507812 C 199.171875 90.574219 199.152344 90.640625 199.132812 90.710938 C 199.109375 90.785156 199.089844 90.859375 199.070312 90.9375 C 199.054688 91.015625 199.042969 91.097656 199.027344 91.175781 C 199.015625 91.234375 199.003906 91.285156 198.992188 91.34375 C 198.921875 91.875 198.8125 92.484375 198.699219 93.160156 C 197.585938 99.652344 195.265625 113.160156 207.367188 121.972656 C 218.6875 130.203125 234.46875 137.613281 245.996094 143.023438 L 250.152344 144.980469 C 257.121094 148.296875 262.90625 169.863281 267.554688 187.195312 C 268.976562 192.507812 270.449219 197.996094 271.953125 203.046875 C 277.230469 220.78125 291.6875 245.800781 315.066406 257.972656 C 324.042969 262.640625 333.613281 265.117188 343.695312 265.398438 C 331.34375 269.035156 314.882812 270.046875 296.097656 261.46875 C 256.9375 243.566406 240.269531 200.792969 240.109375 200.363281 C 239.367188 198.421875 237.4375 197.199219 235.363281 197.386719 C 233.296875 197.5625 231.597656 199.085938 231.199219 201.125 C 230.769531 203.339844 220.933594 255.714844 248.164062 285.042969 C 249.082031 286.027344 250.324219 286.527344 251.570312 286.527344 C 252.703125 286.527344 253.839844 286.121094 254.734375 285.289062 C 256.617188 283.542969 256.726562 280.597656 254.980469 278.71875 C 239.449219 261.988281 237.847656 235.355469 238.671875 218.519531 C 247.414062 233.855469 264.476562 257.242188 292.234375 269.929688 C 338.210938 290.925781 372.046875 261.21875 373.464844 259.941406 C 375.101562 258.46875 375.480469 256.050781 374.375 254.144531 Z M 374.367188 254.136719 " fill-opacity="1" fill-rule="nonzero"/></g><g clip-path="url(#2f5e24e020)"><path fill="#2c2c2c" d="M 311.460938 291.109375 C 276.996094 286.308594 238.246094 305.386719 204.039062 322.222656 C 198.277344 325.0625 192.8125 327.746094 187.511719 330.25 C 182.214844 327.75 176.742188 325.0625 170.980469 322.222656 C 136.777344 305.390625 98.023438 286.3125 63.566406 291.113281 C 45.148438 293.683594 33.09375 307.511719 34.25 324.75 C 35.496094 343.375 52.695312 363.496094 87.5 363.660156 C 87.789062 363.660156 88.074219 363.660156 88.363281 363.660156 C 135.96875 363.660156 177.707031 345.234375 187.515625 340.566406 C 197.320312 345.234375 239.0625 363.660156 286.667969 363.660156 C 286.953125 363.660156 287.242188 363.660156 287.53125 363.660156 C 322.335938 363.496094 339.53125 343.378906 340.78125 324.75 C 341.941406 307.515625 329.882812 293.683594 311.46875 291.113281 Z M 88.335938 354.363281 C 88.074219 354.363281 87.804688 354.363281 87.542969 354.363281 C 58.679688 354.226562 44.496094 338.59375 43.523438 324.128906 C 42.882812 314.609375 48.085938 302.660156 64.847656 300.320312 C 68.085938 299.871094 71.378906 299.65625 74.726562 299.65625 C 104.078125 299.65625 137.25 315.984375 166.875 330.566406 C 170.160156 332.183594 173.351562 333.753906 176.480469 335.273438 C 160.714844 341.894531 126.035156 354.363281 88.339844 354.363281 Z M 331.5 324.125 C 330.53125 338.59375 316.339844 354.226562 287.480469 354.363281 C 287.210938 354.363281 286.949219 354.363281 286.683594 354.363281 C 248.992188 354.363281 214.308594 341.894531 198.542969 335.273438 C 201.667969 333.753906 204.859375 332.183594 208.144531 330.566406 C 241.148438 314.320312 278.566406 295.90625 310.171875 300.320312 C 326.933594 302.652344 332.132812 314.601562 331.496094 324.125 Z M 331.5 324.125 " fill-opacity="1" fill-rule="nonzero"/></g></svg>