<svg xmlns="http://www.w3.org/2000/svg" xmlns:xlink="http://www.w3.org/1999/xlink" width="500" zoomAndPan="magnify" viewBox="0 0 375 374.999991" height="500" preserveAspectRatio="xMidYMid meet" version="1.0"><defs><g/><clipPath id="997e0d47a3"><rect x="0" width="345" y="0" height="92"/></clipPath></defs><g transform="matrix(1, 0, 0, 1, 18, 141)"><g clip-path="url(#997e0d47a3)"><g fill="#2c2c2c" fill-opacity="1"><g transform="translate(0.910584, 68.301546)"><g><path d="M 34.410156 -43.75 L 3.992188 -43.75 L 3.992188 0 L 34.164062 0 L 34.164062 -4.671875 L 9.15625 -4.671875 L 9.15625 -20.460938 L 31.953125 -20.460938 L 31.953125 -25.132812 L 9.15625 -25.132812 L 9.15625 -39.082031 L 34.410156 -39.082031 Z M 34.410156 -43.75 "/></g></g></g><g fill="#2c2c2c" fill-opacity="1"><g transform="translate(41.771687, 68.301546)"><g><path d="M 20.585938 0.921875 C 31.523438 0.921875 37.789062 -5.285156 37.789062 -16.222656 L 37.789062 -43.75 L 32.628906 -43.75 L 32.628906 -16.285156 C 32.628906 -7.679688 28.203125 -3.808594 20.585938 -3.808594 C 12.964844 -3.808594 8.542969 -7.679688 8.542969 -16.285156 L 8.542969 -43.75 L 3.378906 -43.75 L 3.378906 -16.222656 C 3.378906 -5.285156 9.648438 0.921875 20.585938 0.921875 Z M 20.585938 0.921875 "/></g></g></g><g fill="#2c2c2c" fill-opacity="1"><g transform="translate(87.855443, 68.301546)"><g><path d="M 1.230469 -43.75 L 1.230469 -39.082031 L 16.097656 -39.082031 L 16.097656 0 L 21.445312 0 L 21.445312 -39.082031 L 36.316406 -39.082031 L 36.316406 -43.75 Z M 1.230469 -43.75 "/></g></g></g><g fill="#2c2c2c" fill-opacity="1"><g transform="translate(130.314055, 68.301546)"><g><path d="M 33.550781 -24.886719 L 9.15625 -24.886719 L 9.15625 -43.75 L 3.992188 -43.75 L 3.992188 0 L 9.15625 0 L 9.15625 -20.214844 L 33.550781 -20.214844 L 33.550781 0 L 38.710938 0 L 38.710938 -43.75 L 33.550781 -43.75 Z M 33.550781 -24.886719 "/></g></g></g><g fill="#2c2c2c" fill-opacity="1"><g transform="translate(177.933886, 68.301546)"><g><path d="M 27.28125 -33.550781 C 24.886719 -29.800781 22.550781 -25.992188 20.277344 -22.183594 C 18.003906 -25.992188 15.667969 -29.742188 13.273438 -33.488281 L 6.820312 -43.75 L 0.921875 -43.75 L 17.636719 -17.574219 L 17.636719 0 L 22.796875 0 L 22.796875 -17.574219 L 39.511719 -43.75 L 33.671875 -43.75 Z M 27.28125 -33.550781 "/></g></g></g><g fill="#2c2c2c" fill-opacity="1"><g transform="translate(223.28033, 68.301546)"><g><path d="M 31.03125 -19.601562 C 29.25 -15.300781 27.222656 -9.832031 25.871094 -6.269531 C 24.578125 -9.648438 22.675781 -14.5625 20.890625 -18.863281 L 10.753906 -43.75 L 3.992188 -43.75 L 3.992188 0 L 9.03125 0 L 9.03125 -14.011719 C 9.03125 -19.847656 9.03125 -27.835938 8.847656 -36.316406 C 10.015625 -33.058594 11.183594 -30.109375 12.71875 -26.359375 L 23.597656 0 L 28.019531 0 L 38.835938 -26.359375 C 40.371094 -30.109375 41.539062 -33.058594 42.707031 -36.316406 C 42.523438 -27.835938 42.523438 -19.847656 42.523438 -14.011719 L 42.523438 0 L 47.5625 0 L 47.5625 -43.75 L 40.800781 -43.75 Z M 31.03125 -19.601562 "/></g></g></g><g fill="#2c2c2c" fill-opacity="1"><g transform="translate(279.747955, 68.301546)"><g><path d="M 8.601562 -46.332031 L 14.070312 -55.242188 L 8.050781 -55.242188 L 4.609375 -46.332031 Z M 9.15625 0 L 9.15625 -43.75 L 3.992188 -43.75 L 3.992188 0 Z M 9.15625 0 "/></g></g></g><g fill="#2c2c2c" fill-opacity="1"><g transform="translate(297.813711, 68.301546)"><g><path d="M 17.144531 -43.75 L 1.535156 -4.671875 L 1.535156 0 L 38.710938 0 L 38.710938 -4.671875 L 22.921875 -43.75 Z M 19.96875 -38.160156 C 22.613281 -31.398438 26.054688 -22.675781 27.957031 -17.941406 L 33.304688 -4.671875 L 6.945312 -4.671875 L 12.167969 -17.882812 C 14.070312 -22.613281 17.453125 -31.398438 19.96875 -38.160156 Z M 19.96875 -38.160156 "/></g></g></g></g></g></svg>